{
    "asset" : {
        "generator" : "Khronos glTF Blender I/O v1.3.48",
        "version" : "2.0"
    },
    "scene" : 0,
    "scenes" : [
        {
            "name" : "Scene",
            "nodes" : [
                0
            ]
        }
    ],
    "nodes" : [
        {
            "mesh" : 0,
            "name" : "SALU"
        }
    ],
    "materials" : [
        {
            "doubleSided" : true,
            "emissiveFactor" : [
                0,
                0,
                0
            ],
            "name" : "Material.001",
            "pbrMetallicRoughness" : {
                "baseColorFactor" : [
                    0.047093793749809265,
                    0.07739715278148651,
                    0.8000000715255737,
                    1
                ],
                "metallicFactor" : 0,
                "roughnessFactor" : 0.5
            }
        }
    ],
    "meshes" : [
        {
            "name" : "SALUT",
            "primitives" : [
                {
                    "attributes" : {
                        "POSITION" : 0,
                        "NORMAL" : 1,
                        "TEXCOORD_0" : 2
                    },
                    "indices" : 3,
                    "material" : 0
                }
            ]
        }
    ],
    "accessors" : [
        {
            "bufferView" : 0,
            "componentType" : 5126,
            "count" : 8088,
            "max" : [
                4.915990352630615,
                0.12999999523162842,
                1.0017380714416504
            ],
            "min" : [
                -4.863846778869629,
                -0.12999999523162842,
                -0.8597913980484009
            ],
            "type" : "VEC3"
        },
        {
            "bufferView" : 1,
            "componentType" : 5126,
            "count" : 8088,
            "type" : "VEC3"
        },
        {
            "bufferView" : 2,
            "componentType" : 5126,
            "count" : 8088,
            "type" : "VEC2"
        },
        {
            "bufferView" : 3,
            "componentType" : 5123,
            "count" : 15648,
            "type" : "SCALAR"
        }
    ],
    "bufferViews" : [
        {
            "buffer" : 0,
            "byteLength" : 97056,
            "byteOffset" : 0
        },
        {
            "buffer" : 0,
            "byteLength" : 97056,
            "byteOffset" : 97056
        },
        {
            "buffer" : 0,
            "byteLength" : 64704,
            "byteOffset" : 194112
        },
        {
            "buffer" : 0,
            "byteLength" : 31296,
            "byteOffset" : 258816
        }
    ],
    "buffers" : [
        {
            "byteLength" : 290112,
            "uri" : "data:application/octet-stream;base64,"
        }
    ]
}
